name C:\Users\u0101727\Documents\MyRepositories\upper-imu-dc\OpenSim\subject0\MA\MA_Splines\angle_in_n6_dof6_4.mot
datacolumns 7
datarows 60
range 416.65000000 417.24000000
endheader 
time	clav_prot	clav_elev	scapula_abduction	scapula_elevation	scapula_upward_rot	scapula_winging	
        416.65000000	        -44.34577705	          2.15399008	         11.28790885	         -7.82036939	         39.13617076	          6.73993887	
        416.66000000	        -38.85780873	          2.15399008	         11.28790885	         -7.82036939	         39.13617076	          6.73993887	
        416.67000000	        -33.36984042	          2.15399008	         11.28790885	         -7.82036939	         39.13617076	          6.73993887	
        416.68000000	        -27.88187210	          2.15399008	         11.28790885	         -7.82036939	         39.13617076	          6.73993887	
        416.69000000	        -22.39390379	          2.15399008	         11.28790885	         -7.82036939	         39.13617076	          6.73993887	
        416.70000000	        -16.90593547	          2.15399008	         11.28790885	         -7.82036939	         39.13617076	          6.73993887	
        416.71000000	        -44.34577705	          7.05722688	         11.28790885	         -7.82036939	         39.13617076	          6.73993887	
        416.72000000	        -38.85780873	          7.05722688	         11.28790885	         -7.82036939	         39.13617076	          6.73993887	
        416.73000000	        -33.36984042	          7.05722688	         11.28790885	         -7.82036939	         39.13617076	          6.73993887	
        416.74000000	        -27.88187210	          7.05722688	         11.28790885	         -7.82036939	         39.13617076	          6.73993887	
        416.75000000	        -22.39390379	          7.05722688	         11.28790885	         -7.82036939	         39.13617076	          6.73993887	
        416.76000000	        -16.90593547	          7.05722688	         11.28790885	         -7.82036939	         39.13617076	          6.73993887	
        416.77000000	        -44.34577705	         11.96046367	         11.28790885	         -7.82036939	         39.13617076	          6.73993887	
        416.78000000	        -38.85780873	         11.96046367	         11.28790885	         -7.82036939	         39.13617076	          6.73993887	
        416.79000000	        -33.36984042	         11.96046367	         11.28790885	         -7.82036939	         39.13617076	          6.73993887	
        416.80000000	        -27.88187210	         11.96046367	         11.28790885	         -7.82036939	         39.13617076	          6.73993887	
        416.81000000	        -22.39390379	         11.96046367	         11.28790885	         -7.82036939	         39.13617076	          6.73993887	
        416.82000000	        -16.90593547	         11.96046367	         11.28790885	         -7.82036939	         39.13617076	          6.73993887	
        416.83000000	        -44.34577705	         16.86370047	         11.28790885	         -7.82036939	         39.13617076	          6.73993887	
        416.84000000	        -38.85780873	         16.86370047	         11.28790885	         -7.82036939	         39.13617076	          6.73993887	
        416.85000000	        -33.36984042	         16.86370047	         11.28790885	         -7.82036939	         39.13617076	          6.73993887	
        416.86000000	        -27.88187210	         16.86370047	         11.28790885	         -7.82036939	         39.13617076	          6.73993887	
        416.87000000	        -22.39390379	         16.86370047	         11.28790885	         -7.82036939	         39.13617076	          6.73993887	
        416.88000000	        -16.90593547	         16.86370047	         11.28790885	         -7.82036939	         39.13617076	          6.73993887	
        416.89000000	        -44.34577705	         -7.65248351	        -30.88730313	         -4.83889401	         39.13617076	          6.73993887	
        416.90000000	        -38.85780873	         -7.65248351	        -30.88730313	         -4.83889401	         39.13617076	          6.73993887	
        416.91000000	        -33.36984042	         -7.65248351	        -30.88730313	         -4.83889401	         39.13617076	          6.73993887	
        416.92000000	        -27.88187210	         -7.65248351	        -30.88730313	         -4.83889401	         39.13617076	          6.73993887	
        416.93000000	        -22.39390379	         -7.65248351	        -30.88730313	         -4.83889401	         39.13617076	          6.73993887	
        416.94000000	        -16.90593547	         -7.65248351	        -30.88730313	         -4.83889401	         39.13617076	          6.73993887	
        416.95000000	        -44.34577705	         -2.74924671	        -30.88730313	         -4.83889401	         39.13617076	          6.73993887	
        416.96000000	        -38.85780873	         -2.74924671	        -30.88730313	         -4.83889401	         39.13617076	          6.73993887	
        416.97000000	        -33.36984042	         -2.74924671	        -30.88730313	         -4.83889401	         39.13617076	          6.73993887	
        416.98000000	        -27.88187210	         -2.74924671	        -30.88730313	         -4.83889401	         39.13617076	          6.73993887	
        416.99000000	        -22.39390379	         -2.74924671	        -30.88730313	         -4.83889401	         39.13617076	          6.73993887	
        417.00000000	        -16.90593547	         -2.74924671	        -30.88730313	         -4.83889401	         39.13617076	          6.73993887	
        417.01000000	        -44.34577705	          2.15399008	        -30.88730313	         -4.83889401	         39.13617076	          6.73993887	
        417.02000000	        -38.85780873	          2.15399008	        -30.88730313	         -4.83889401	         39.13617076	          6.73993887	
        417.03000000	        -33.36984042	          2.15399008	        -30.88730313	         -4.83889401	         39.13617076	          6.73993887	
        417.04000000	        -27.88187210	          2.15399008	        -30.88730313	         -4.83889401	         39.13617076	          6.73993887	
        417.05000000	        -22.39390379	          2.15399008	        -30.88730313	         -4.83889401	         39.13617076	          6.73993887	
        417.06000000	        -16.90593547	          2.15399008	        -30.88730313	         -4.83889401	         39.13617076	          6.73993887	
        417.07000000	        -44.34577705	          7.05722688	        -30.88730313	         -4.83889401	         39.13617076	          6.73993887	
        417.08000000	        -38.85780873	          7.05722688	        -30.88730313	         -4.83889401	         39.13617076	          6.73993887	
        417.09000000	        -33.36984042	          7.05722688	        -30.88730313	         -4.83889401	         39.13617076	          6.73993887	
        417.10000000	        -27.88187210	          7.05722688	        -30.88730313	         -4.83889401	         39.13617076	          6.73993887	
        417.11000000	        -22.39390379	          7.05722688	        -30.88730313	         -4.83889401	         39.13617076	          6.73993887	
        417.12000000	        -16.90593547	          7.05722688	        -30.88730313	         -4.83889401	         39.13617076	          6.73993887	
        417.13000000	        -44.34577705	         11.96046367	        -30.88730313	         -4.83889401	         39.13617076	          6.73993887	
        417.14000000	        -38.85780873	         11.96046367	        -30.88730313	         -4.83889401	         39.13617076	          6.73993887	
        417.15000000	        -33.36984042	         11.96046367	        -30.88730313	         -4.83889401	         39.13617076	          6.73993887	
        417.16000000	        -27.88187210	         11.96046367	        -30.88730313	         -4.83889401	         39.13617076	          6.73993887	
        417.17000000	        -22.39390379	         11.96046367	        -30.88730313	         -4.83889401	         39.13617076	          6.73993887	
        417.18000000	        -16.90593547	         11.96046367	        -30.88730313	         -4.83889401	         39.13617076	          6.73993887	
        417.19000000	        -44.34577705	         16.86370047	        -30.88730313	         -4.83889401	         39.13617076	          6.73993887	
        417.20000000	        -38.85780873	         16.86370047	        -30.88730313	         -4.83889401	         39.13617076	          6.73993887	
        417.21000000	        -33.36984042	         16.86370047	        -30.88730313	         -4.83889401	         39.13617076	          6.73993887	
        417.22000000	        -27.88187210	         16.86370047	        -30.88730313	         -4.83889401	         39.13617076	          6.73993887	
        417.23000000	        -22.39390379	         16.86370047	        -30.88730313	         -4.83889401	         39.13617076	          6.73993887	
        417.24000000	        -16.90593547	         16.86370047	        -30.88730313	         -4.83889401	         39.13617076	          6.73993887	
